<?xml version="1.0" standalone="no"?>
<!DOCTYPE svg PUBLIC "-//W3C//DTD SVG 20010904//EN"
 "http://www.w3.org/TR/2001/REC-SVG-20010904/DTD/svg10.dtd">
<svg version="1.0" xmlns="http://www.w3.org/2000/svg"
 width="500.000000pt" height="500.000000pt" viewBox="0 0 500.000000 500.000000"
 preserveAspectRatio="xMidYMid meet">
<metadata>
Created by potrace 1.14, written by Peter Selinger 2001-2017
</metadata>
<g transform="translate(0.000000,500.000000) scale(0.100000,-0.100000)"
fill="#000000" stroke="none">
<path d="M1750 4130 c0 -5 -7 -7 -15 -4 -9 4 -15 0 -15 -10 0 -10 6 -13 15
-10 33 13 12 -8 -25 -25 -22 -10 -37 -21 -33 -24 3 -4 -6 -7 -21 -7 -18 0 -25
-4 -20 -12 4 -7 3 -8 -4 -4 -7 4 -8 15 -2 30 6 17 5 23 -5 23 -8 0 -12 -4 -9
-8 2 -4 -8 -19 -23 -33 -15 -14 -24 -26 -20 -26 10 0 -23 -34 -48 -49 l-20
-13 20 7 c15 4 13 -1 -9 -20 -17 -14 -40 -28 -53 -31 -12 -4 -21 -9 -19 -13 3
-4 1 -13 -5 -21 -6 -10 -9 -11 -9 -2 0 6 -5 12 -11 12 -5 0 -8 -4 -5 -9 3 -5
-1 -12 -9 -15 -8 -3 -14 -9 -13 -13 4 -17 -14 -53 -27 -53 -11 0 -32 -50 -23
-58 2 -2 -5 -8 -15 -14 -14 -7 -16 -13 -6 -24 8 -10 8 -14 0 -14 -6 0 -11 -9
-11 -21 0 -11 -4 -18 -8 -15 -4 2 -9 -7 -10 -20 -1 -18 2 -23 11 -18 9 5 9 4
0 -6 -9 -10 -9 -19 2 -40 8 -15 11 -31 7 -34 -3 -4 2 -4 11 0 12 4 17 2 15 -7
-2 -8 2 -13 8 -12 6 1 11 -5 11 -13 0 -8 -6 -13 -13 -10 -9 3 -11 -1 -7 -12 6
-15 5 -16 -13 -2 -17 13 -18 13 -8 0 7 -8 12 -44 13 -80 1 -91 15 -170 30
-170 7 0 13 -51 15 -112 0 -16 4 -28 9 -28 4 0 5 -5 2 -10 -4 -6 -10 -8 -15
-5 -4 3 -15 -6 -23 -18 -14 -21 -13 -29 5 -83 11 -32 23 -61 26 -64 4 -3 9
-14 10 -25 2 -11 7 -22 12 -25 4 -3 17 -32 29 -65 27 -73 61 -137 79 -148 15
-10 36 -57 33 -74 -1 -7 3 -13 9 -13 5 0 9 -3 8 -7 -4 -20 59 -123 94 -154 10
-9 18 -20 18 -25 0 -11 42 -39 53 -36 4 1 6 -1 5 -5 -2 -5 25 -36 60 -70 48
-48 67 -75 79 -115 22 -69 22 -70 1 -92 -10 -11 -19 -28 -19 -38 -1 -10 -2
-24 -3 -30 -1 -7 3 -16 8 -20 11 -8 -8 -27 -47 -48 -16 -8 -54 -36 -85 -63
-102 -87 -112 -95 -112 -89 0 4 -4 2 -8 -3 -4 -6 -20 -21 -36 -33 -16 -12 -25
-22 -20 -22 5 0 -10 -13 -34 -28 -23 -16 -55 -43 -70 -60 -16 -18 -32 -29 -35
-25 -4 3 -7 0 -7 -7 0 -7 -15 -27 -32 -43 -18 -17 -26 -26 -18 -21 8 4 -1 -9
-20 -29 -72 -77 -98 -146 -116 -307 -4 -45 -11 -85 -14 -85 -1 0 -2 -15 -3
-33 -1 -17 2 -32 6 -32 5 0 5 -6 0 -12 -4 -7 -8 -22 -9 -33 -1 -11 -3 -34 -5
-50 -2 -17 0 -35 4 -42 4 -6 3 -14 -1 -17 -9 -6 -8 -173 3 -301 3 -38 8 -98
10 -133 2 -35 6 -71 9 -80 6 -19 15 -143 18 -269 l3 -83 1337 0 1338 0 -2 113
c-1 61 -5 119 -9 128 -4 9 -11 94 -14 190 -3 96 -8 194 -9 219 -2 25 -4 70 -6
100 -2 30 -7 63 -12 73 -5 10 -5 17 1 17 7 0 7 9 2 22 -4 13 -8 76 -8 140 -1
117 -13 192 -41 258 -9 19 -16 37 -17 40 -1 3 -14 32 -30 65 -45 96 -98 160
-157 191 -15 8 -31 20 -35 27 -4 7 -26 26 -48 43 -47 35 -82 63 -106 86 -10 9
-29 24 -43 33 -14 10 -26 21 -26 26 0 4 -22 30 -50 56 -73 71 -91 87 -130 114
-19 13 -37 26 -40 29 -3 3 -34 28 -70 55 -36 28 -74 61 -85 74 -35 44 -67 71
-76 65 -5 -3 -9 0 -9 6 0 6 -10 14 -22 19 -32 12 -151 92 -160 107 -5 6 -28
37 -53 68 -26 31 -43 56 -39 56 3 0 1 6 -5 13 -6 8 -8 17 -4 20 3 4 0 13 -7
22 -7 8 -10 15 -8 15 3 0 2 20 -2 45 -4 25 -3 45 1 45 5 0 6 7 2 16 -3 9 0 20
8 25 9 6 10 9 2 9 -7 0 -10 9 -7 23 3 12 7 37 8 56 1 19 9 37 19 43 9 5 17 6
17 3 0 -7 21 10 61 49 16 16 29 37 29 47 0 9 4 19 10 21 5 2 10 18 12 36 1 17
5 32 8 32 4 0 7 6 7 13 1 18 11 67 22 105 5 18 10 35 10 37 1 3 1 6 2 8 5 18
2 67 -5 67 -5 0 -6 3 -3 6 18 18 -44 80 -76 75 -4 -1 -4 7 1 16 11 22 2 241
-13 333 -3 19 -7 44 -9 55 -1 11 -10 34 -18 50 -8 17 -19 48 -23 70 -4 22 -12
49 -18 60 -6 11 -11 22 -12 25 0 10 -45 63 -45 54 0 -5 -6 2 -13 15 -6 13 -21
29 -31 35 -11 6 -27 18 -36 26 -48 43 -67 56 -78 52 -7 -2 -12 1 -12 7 0 6 -3
10 -7 9 -5 0 -15 2 -23 5 -82 33 -124 40 -252 42 -88 2 -138 -1 -138 -7 0 -7
-5 -7 -12 -1 -7 5 -29 8 -48 8 -19 0 -38 4 -41 8 -3 5 -13 1 -23 -8 -9 -9 -16
-12 -16 -6 0 6 -11 4 -27 -4 -25 -13 -29 -12 -45 5 -21 22 -28 25 -28 10z m25
-41 c-4 -5 -12 -9 -18 -8 -9 0 -8 2 1 6 6 2 9 10 6 15 -4 7 -2 8 5 4 6 -4 9
-12 6 -17z m-444 -492 c-6 -8 -7 -18 -3 -22 4 -5 1 -5 -6 -1 -10 6 -10 11 -1
22 6 8 14 14 16 14 3 0 0 -6 -6 -13z"/>
<path d="M1684 4112 c-10 -15 -8 -18 11 -18 20 0 22 3 14 18 -5 10 -11 18 -12
18 -1 0 -7 -8 -13 -18z"/>
</g>
</svg>
